<svg width="652" height="652" viewBox="0 0 652 652" fill="none" xmlns="http://www.w3.org/2000/svg">
<circle cx="325.954" cy="325.954" r="283.975" fill="#4F60FA"/>
<circle cx="325.954" cy="325.954" r="325.954" fill="#4F60FA" fill-opacity="0.2"/>
<path d="M176.589 327.661H189.94C187.794 341.012 177.066 350.151 162.523 350.151C144.563 350.151 133.676 338.707 133.676 320.271C133.676 302.073 144.881 290.55 162.92 290.55C177.304 290.55 187.635 299.927 189.542 313.039H176.192C174.682 305.172 168.881 301.755 162.444 301.755C154.417 301.755 148.06 308.51 148.06 320.271C148.06 332.429 154.338 338.946 162.603 338.946C168.563 338.946 174.841 336.403 176.589 327.661ZM230.548 349.118L218.071 327.423H208.853V349.118H195.264V291.503H217.435C232.375 291.503 243.58 295 243.58 309.304C243.58 317.807 238.892 322.655 232.296 325.198L246.521 349.118H230.548ZM217.833 302.947H208.853V315.98H217.833C224.27 315.98 229.197 314.946 229.197 309.463C229.197 304.139 224.27 302.947 217.833 302.947ZM289.966 349.118H277.172L264.218 303.026V349.118H251.027V291.503H272.483L283.529 332.827L294.814 291.503H316.032V349.118H302.84V302.947L289.966 349.118ZM379.452 349.118H366.658L353.704 303.026V349.118H340.513V291.503H361.969L373.015 332.827L384.299 291.503H405.517V349.118H392.326V302.947L379.452 349.118ZM414.435 349.118V291.503H458.619V303.424H428.024V313.516H456.95V325.516H428.024V337.118H458.619V349.118H414.435ZM503.923 320.271C503.923 305.013 494.784 302.947 484.851 302.947H479.208V337.674H484.851C494.784 337.674 503.923 335.529 503.923 320.271ZM465.619 291.503H484.612C503.446 291.503 518.307 298.417 518.307 320.271C518.307 342.204 503.446 349.118 484.612 349.118H465.619V291.503Z" fill="white"/>
</svg>
